<svg xmlns="http://www.w3.org/2000/svg" xmlns:xlink="http://www.w3.org/1999/xlink" width="307" zoomAndPan="magnify" viewBox="0 0 230.25 174.75" height="233" preserveAspectRatio="xMidYMid meet" version="1.0"><defs><clipPath id="3e24d474f8"><path d="M 0 0.160156 L 228.753906 0.160156 L 228.753906 174 L 0 174 Z M 0 0.160156 " clip-rule="nonzero"/></clipPath></defs><g clip-path="url(#3e24d474f8)"><path fill="#ffffff" d="M 223.582031 74.554688 L 154.550781 5.523438 C 151.199219 2.171875 146.742188 0.316406 142.007812 0.316406 C 137.273438 0.316406 132.816406 2.171875 129.464844 5.523438 C 126.109375 8.875 124.257812 13.332031 124.257812 18.066406 C 124.257812 22.800781 126.109375 27.257812 129.464844 30.609375 L 168.199219 69.347656 L 17.75 69.347656 C 7.96875 69.347656 0 77.316406 0 87.097656 C 0 96.882812 7.96875 104.847656 17.75 104.847656 L 168.199219 104.847656 L 129.464844 143.585938 C 126.109375 146.9375 124.257812 151.394531 124.257812 156.128906 C 124.257812 160.863281 126.109375 165.320312 129.464844 168.675781 C 132.816406 172.027344 137.273438 173.882812 142.007812 173.882812 C 146.742188 173.882812 151.199219 172.027344 154.550781 168.675781 L 223.464844 99.761719 C 226.855469 96.488281 228.75 92.03125 228.75 87.21875 C 228.789062 82.40625 226.976562 77.945312 223.582031 74.554688 Z M 223.582031 74.554688 " fill-opacity="1" fill-rule="nonzero"/><path fill="#ffffff" d="M 223.582031 74.554688 L 154.550781 5.523438 C 151.199219 2.171875 146.742188 0.316406 142.007812 0.316406 C 137.273438 0.316406 132.816406 2.171875 129.464844 5.523438 C 126.109375 8.875 124.257812 13.332031 124.257812 18.066406 C 124.257812 22.800781 126.109375 27.257812 129.464844 30.609375 L 168.199219 69.347656 L 17.75 69.347656 C 7.96875 69.347656 0 77.316406 0 87.097656 C 0 96.882812 7.96875 104.847656 17.75 104.847656 L 168.199219 104.847656 L 129.464844 143.585938 C 126.109375 146.9375 124.257812 151.394531 124.257812 156.128906 C 124.257812 160.863281 126.109375 165.320312 129.464844 168.675781 C 132.816406 172.027344 137.273438 173.882812 142.007812 173.882812 C 146.742188 173.882812 151.199219 172.027344 154.550781 168.675781 L 223.464844 99.761719 C 226.855469 96.488281 228.75 92.03125 228.75 87.21875 C 228.789062 82.40625 226.976562 77.945312 223.582031 74.554688 Z M 223.582031 74.554688 " fill-opacity="1" fill-rule="nonzero"/></g></svg>