<svg xmlns="http://www.w3.org/2000/svg" xmlns:xlink="http://www.w3.org/1999/xlink" width="27" zoomAndPan="magnify" viewBox="0 0 20.25 17.999999" height="24" preserveAspectRatio="xMidYMid meet" version="1.0"><defs><filter x="0%" y="0%" width="100%" height="100%" id="5859718030"><feColorMatrix values="0 0 0 0 1 0 0 0 0 1 0 0 0 0 1 0 0 0 1 0" color-interpolation-filters="sRGB"/></filter><clipPath id="2162ec980e"><path d="M 0 0.320312 L 19.527344 0.320312 L 19.527344 17.679688 L 0 17.679688 Z M 0 0.320312 " clip-rule="nonzero"/></clipPath><mask id="2c8ff063ad"><g filter="url(#5859718030)"><rect x="-2.025" width="24.3" fill="#000000" y="-1.8" height="21.599999" fill-opacity="0.61"/></g></mask><clipPath id="7cc4212338"><path d="M 0.0234375 0.320312 L 18.804688 0.320312 L 18.804688 17.339844 L 0.0234375 17.339844 Z M 0.0234375 0.320312 " clip-rule="nonzero"/></clipPath><clipPath id="69c27f4e98"><rect x="0" width="20" y="0" height="18"/></clipPath><mask id="0b6fc32227"><g filter="url(#5859718030)"><rect x="-2.025" width="24.3" fill="#000000" y="-1.8" height="21.599999" fill-opacity="0.61"/></g></mask><clipPath id="e74be81ed5"><path d="M 0.0234375 0.320312 L 18.804688 0.320312 L 18.804688 17.339844 L 0.0234375 17.339844 Z M 0.0234375 0.320312 " clip-rule="nonzero"/></clipPath><clipPath id="a4d8533e8b"><rect x="0" width="20" y="0" height="18"/></clipPath></defs><g clip-path="url(#2162ec980e)"><g mask="url(#2c8ff063ad)"><g transform="matrix(1, 0, 0, 1, 0, 0.000000000000003941)"><g clip-path="url(#69c27f4e98)"><g clip-path="url(#7cc4212338)"><path fill="#ffffff" d="M 9.976562 4.863281 C 10.554688 4.863281 11.027344 5.335938 11.027344 5.914062 L 11.027344 8.1875 L 13.277344 8.1875 C 13.859375 8.1875 14.328125 8.65625 14.328125 9.238281 C 14.328125 9.816406 13.859375 10.285156 13.277344 10.285156 L 9.976562 10.285156 C 9.398438 10.285156 8.925781 9.816406 8.925781 9.238281 L 8.929688 9.226562 L 8.925781 9.214844 L 8.925781 5.914062 C 8.925781 5.335938 9.398438 4.863281 9.976562 4.863281 Z M 10.632812 0.324219 C 14.09375 0.375 17.300781 2.554688 18.511719 6.019531 C 20.066406 10.453125 17.734375 15.304688 13.296875 16.859375 C 10.414062 17.871094 7.347656 17.234375 5.132812 15.445312 C 4.503906 14.9375 4.671875 13.9375 5.433594 13.671875 C 5.769531 13.550781 6.144531 13.617188 6.421875 13.839844 C 8.101562 15.199219 10.425781 15.683594 12.617188 14.917969 C 15.996094 13.734375 17.765625 10.023438 16.554688 6.652344 C 15.359375 3.332031 11.675781 1.578125 8.347656 2.75 C 6.417969 3.425781 5.011719 4.929688 4.390625 6.722656 L 4.28125 7.074219 L 5.140625 6.628906 C 5.65625 6.359375 6.289062 6.5625 6.554688 7.074219 C 6.820312 7.589844 6.621094 8.222656 6.105469 8.488281 C 5.128906 8.996094 4.152344 9.503906 3.175781 10.007812 C 3.046875 10.074219 2.910156 10.113281 2.773438 10.125 L 2.761719 10.125 L 2.710938 10.132812 C 2.304688 10.167969 1.894531 9.964844 1.691406 9.578125 L 0.148438 6.664062 C -0.125 6.152344 0.0703125 5.515625 0.582031 5.246094 C 1.09375 4.972656 1.730469 5.167969 2 5.679688 L 2.351562 6.339844 L 2.355469 6.316406 C 3.132812 3.820312 5.039062 1.714844 7.703125 0.792969 C 8.671875 0.457031 9.660156 0.308594 10.632812 0.324219 Z M 10.632812 0.324219 " fill-opacity="1" fill-rule="evenodd"/></g></g></g></g><g mask="url(#0b6fc32227)"><g transform="matrix(1, 0, 0, 1, 0, 0.000000000000003941)"><g clip-path="url(#a4d8533e8b)"><g clip-path="url(#e74be81ed5)"><path fill="#ffffff" d="M 9.976562 4.863281 C 10.554688 4.863281 11.027344 5.335938 11.027344 5.914062 L 11.027344 8.1875 L 13.277344 8.1875 C 13.859375 8.1875 14.328125 8.65625 14.328125 9.238281 C 14.328125 9.816406 13.859375 10.285156 13.277344 10.285156 L 9.976562 10.285156 C 9.398438 10.285156 8.925781 9.816406 8.925781 9.238281 L 8.929688 9.226562 L 8.925781 9.214844 L 8.925781 5.914062 C 8.925781 5.335938 9.398438 4.863281 9.976562 4.863281 Z M 10.632812 0.324219 C 14.09375 0.375 17.300781 2.554688 18.511719 6.019531 C 20.066406 10.453125 17.734375 15.304688 13.296875 16.859375 C 10.414062 17.871094 7.347656 17.234375 5.132812 15.445312 C 4.503906 14.9375 4.671875 13.9375 5.433594 13.671875 C 5.769531 13.550781 6.144531 13.617188 6.421875 13.839844 C 8.101562 15.199219 10.425781 15.683594 12.617188 14.917969 C 15.996094 13.734375 17.765625 10.023438 16.554688 6.652344 C 15.359375 3.332031 11.675781 1.578125 8.347656 2.75 C 6.417969 3.425781 5.011719 4.929688 4.390625 6.722656 L 4.28125 7.074219 L 5.140625 6.628906 C 5.65625 6.359375 6.289062 6.5625 6.554688 7.074219 C 6.820312 7.589844 6.621094 8.222656 6.105469 8.488281 C 5.128906 8.996094 4.152344 9.503906 3.175781 10.007812 C 3.046875 10.074219 2.910156 10.113281 2.773438 10.125 L 2.761719 10.125 L 2.710938 10.132812 C 2.304688 10.167969 1.894531 9.964844 1.691406 9.578125 L 0.148438 6.664062 C -0.125 6.152344 0.0703125 5.515625 0.582031 5.246094 C 1.09375 4.972656 1.730469 5.167969 2 5.679688 L 2.351562 6.339844 L 2.355469 6.316406 C 3.132812 3.820312 5.039062 1.714844 7.703125 0.792969 C 8.671875 0.457031 9.660156 0.308594 10.632812 0.324219 Z M 10.632812 0.324219 " fill-opacity="1" fill-rule="evenodd"/></g></g></g></g></g></svg>